<svg width="20" height="21" viewBox="0 0 20 21" fill="none" xmlns="http://www.w3.org/2000/svg">
<path d="M9.99121 15.2773C9.36426 15.2773 8.76953 15.1572 8.20703 14.917C7.65039 14.6709 7.1582 14.3369 6.73047 13.915C6.30859 13.4873 5.97754 12.9951 5.7373 12.4385C5.49707 11.8818 5.37695 11.2871 5.37695 10.6543C5.37695 10.0215 5.49707 9.42676 5.7373 8.87012C5.97754 8.30762 6.30859 7.81543 6.73047 7.39355C7.1582 6.96582 7.65039 6.63184 8.20703 6.3916C8.76953 6.14551 9.36426 6.02246 9.99121 6.02246C10.6182 6.02246 11.21 6.14551 11.7666 6.3916C12.3291 6.63184 12.8213 6.96582 13.2432 7.39355C13.6709 7.81543 14.0049 8.30762 14.2451 8.87012C14.4854 9.42676 14.6055 10.0215 14.6055 10.6543C14.6055 11.2871 14.4854 11.8818 14.2451 12.4385C14.0049 12.9951 13.6709 13.4873 13.2432 13.915C12.8213 14.3369 12.3291 14.6709 11.7666 14.917C11.21 15.1572 10.6182 15.2773 9.99121 15.2773ZM10 4.44922C9.75391 4.44922 9.5459 4.36133 9.37598 4.18555C9.20605 4.00977 9.12109 3.80176 9.12109 3.56152V1.7334C9.12109 1.49316 9.20605 1.28809 9.37598 1.11816C9.5459 0.942383 9.75391 0.854492 10 0.854492C10.2344 0.854492 10.4365 0.942383 10.6064 1.11816C10.7822 1.28809 10.8701 1.49316 10.8701 1.7334V3.56152C10.8701 3.80176 10.7822 4.00977 10.6064 4.18555C10.4365 4.36133 10.2344 4.44922 10 4.44922ZM14.377 6.27734C14.207 6.11328 14.1221 5.9082 14.1221 5.66211C14.1221 5.41602 14.207 5.20801 14.377 5.03809L15.6777 3.7373C15.8418 3.56738 16.0469 3.48242 16.293 3.48242C16.5391 3.47656 16.7471 3.55859 16.917 3.72852C17.0869 3.89844 17.1719 4.10645 17.1719 4.35254C17.1719 4.59863 17.0869 4.80664 16.917 4.97656L15.625 6.27734C15.4492 6.45312 15.2383 6.54102 14.9922 6.54102C14.752 6.53516 14.5469 6.44727 14.377 6.27734ZM16.1875 10.6543C16.1875 10.4141 16.2725 10.209 16.4424 10.0391C16.6182 9.86328 16.8291 9.77539 17.0752 9.77539H18.8945C19.1348 9.77539 19.3398 9.86328 19.5098 10.0391C19.6855 10.209 19.7734 10.4141 19.7734 10.6543C19.7734 10.8945 19.6855 11.0996 19.5098 11.2695C19.3398 11.4395 19.1348 11.5244 18.8945 11.5244H17.0752C16.8291 11.5244 16.6182 11.4395 16.4424 11.2695C16.2725 11.0996 16.1875 10.8945 16.1875 10.6543ZM14.377 15.0312C14.541 14.8672 14.7461 14.7852 14.9922 14.7852C15.2383 14.7852 15.4463 14.8672 15.6162 15.0312L16.917 16.332C17.0869 16.502 17.1719 16.71 17.1719 16.9561C17.1719 17.1963 17.0898 17.4014 16.9258 17.5713C16.7559 17.7354 16.5479 17.8174 16.3018 17.8174C16.0557 17.8232 15.8506 17.7471 15.6865 17.5889L14.377 16.2705C14.207 16.1006 14.1221 15.8955 14.1221 15.6553C14.1221 15.415 14.207 15.207 14.377 15.0312ZM10 16.8594C10.2344 16.8594 10.4365 16.9443 10.6064 17.1143C10.7822 17.29 10.8701 17.498 10.8701 17.7383V19.5664C10.8701 19.8066 10.7822 20.0117 10.6064 20.1816C10.4365 20.3574 10.2344 20.4453 10 20.4453C9.75391 20.4453 9.5459 20.3574 9.37598 20.1816C9.20605 20.0117 9.12109 19.8066 9.12109 19.5664V17.7383C9.12109 17.498 9.20605 17.29 9.37598 17.1143C9.5459 16.9443 9.75391 16.8594 10 16.8594ZM5.61426 15.0312C5.77832 15.207 5.86035 15.415 5.86035 15.6553C5.86035 15.8955 5.77539 16.1006 5.60547 16.2705L4.30469 17.5801C4.14062 17.7383 3.93262 17.8145 3.68066 17.8086C3.43457 17.8086 3.22656 17.7266 3.05664 17.5625C2.89844 17.3926 2.81934 17.1875 2.81934 16.9473C2.81934 16.7012 2.9043 16.4932 3.07422 16.3232L4.36621 15.0312C4.53613 14.8672 4.74414 14.7852 4.99023 14.7852C5.23633 14.7852 5.44434 14.8672 5.61426 15.0312ZM3.80371 10.6543C3.80371 10.8945 3.71582 11.0996 3.54004 11.2695C3.36426 11.4395 3.15625 11.5244 2.91602 11.5244H1.08789C0.853516 11.5244 0.648438 11.4395 0.472656 11.2695C0.302734 11.0996 0.217773 10.8945 0.217773 10.6543C0.217773 10.4141 0.302734 10.209 0.472656 10.0391C0.648438 9.86328 0.853516 9.77539 1.08789 9.77539H2.91602C3.15625 9.77539 3.36426 9.86328 3.54004 10.0391C3.71582 10.209 3.80371 10.4141 3.80371 10.6543ZM5.60547 6.27734C5.43555 6.44727 5.22754 6.53223 4.98145 6.53223C4.74121 6.53223 4.53613 6.44727 4.36621 6.27734L3.07422 4.96777C2.91016 4.80371 2.82812 4.59863 2.82812 4.35254C2.82812 4.10645 2.91309 3.89844 3.08301 3.72852C3.25293 3.55859 3.45801 3.47656 3.69824 3.48242C3.94434 3.48828 4.15234 3.57324 4.32227 3.7373L5.61426 5.03809C5.77832 5.20801 5.86035 5.41602 5.86035 5.66211C5.86035 5.9082 5.77539 6.11328 5.60547 6.27734Z" fill="#007AFF"/>
</svg>
